<svg width="16" height="16" viewBox="0 0 16 16" fill="none" xmlns="http://www.w3.org/2000/svg">
<path d="M0 4C0 1.79086 1.79086 0 4 0H12C14.2091 0 16 1.79086 16 4V12C16 14.2091 14.2091 16 12 16H4C1.79086 16 0 14.2091 0 12V4Z" fill="#EC4899"/>
<path d="M12.207 4.793C12.3945 4.98053 12.4998 5.23484 12.4998 5.5C12.4998 5.76516 12.3945 6.01947 12.207 6.207L7.20704 11.207C7.01951 11.3945 6.76521 11.4998 6.50004 11.4998C6.23488 11.4998 5.98057 11.3945 5.79304 11.207L3.79304 9.207C3.61088 9.0184 3.51009 8.7658 3.51237 8.5036C3.51465 8.2414 3.61981 7.99059 3.80522 7.80518C3.99063 7.61977 4.24144 7.5146 4.50364 7.51233C4.76584 7.51005 5.01844 7.61084 5.20704 7.793L6.50004 9.086L10.793 4.793C10.9806 4.60553 11.2349 4.50021 11.5 4.50021C11.7652 4.50021 12.0195 4.60553 12.207 4.793Z" fill="white"/>
<path d="M4 1H12V-1H4V1ZM15 4V12H17V4H15ZM12 15H4V17H12V15ZM1 12V4H-1V12H1ZM4 15C2.34315 15 1 13.6569 1 12H-1C-1 14.7614 1.23858 17 4 17V15ZM15 12C15 13.6569 13.6569 15 12 15V17C14.7614 17 17 14.7614 17 12H15ZM12 1C13.6569 1 15 2.34315 15 4H17C17 1.23858 14.7614 -1 12 -1V1ZM4 -1C1.23858 -1 -1 1.23858 -1 4H1C1 2.34315 2.34315 1 4 1V-1Z" fill="#EC4899"/>
</svg>
